<svg viewBox="0 0 24 24" xmlns="http://www.w3.org/2000/svg"><path d="m8.974 18a1.446 1.446 0 0 1 -1.259-.972l-1.843-4.145c-.115-.26-.262-.378-.349-.378h-2.961a.5.5 0 1 1 0-1h2.961a1.444 1.444 0 0 1 1.263.972l1.839 4.145c.116.261.258.378.349.378.088 0 .229-.113.344-.368l4.382-9.676a1.423 1.423 0 0 1 1.258-.956 1.449 1.449 0 0 1 1.26.975l1.839 4.151c.11.249.259.379.349.379h3.028a.5.5 0 0 1 0 1h-3.024a1.444 1.444 0 0 1 -1.263-.975l-1.839-4.151c-.116-.261-.259-.378-.35-.379-.088 0-.229.114-.344.368l-4.385 9.676a1.437 1.437 0 0 1 -1.255.956z"/></svg>